<mxfile host="Electron" agent="Mozilla/5.0 (Windows NT 10.0; Win64; x64) AppleWebKit/537.36 (KHTML, like Gecko) draw.io/28.0.4 Chrome/138.0.7204.97 Electron/37.2.1 Safari/537.36" version="28.0.4">
  <diagram name="หน้า-1" id="Wan05y7TfFMZVF4Su_-q">
    <mxGraphModel dx="1240" dy="731" grid="1" gridSize="10" guides="1" tooltips="1" connect="1" arrows="1" fold="1" page="1" pageScale="1" pageWidth="1169" pageHeight="827" math="0" shadow="0">
      <root>
        <mxCell id="0" />
        <mxCell id="1" parent="0" />
        <mxCell id="sMu1ItdocDUXi0QA_Wb6-7" style="edgeStyle=orthogonalEdgeStyle;rounded=0;orthogonalLoop=1;jettySize=auto;html=1;exitX=0.5;exitY=0.5;exitDx=0;exitDy=0;exitPerimeter=0;entryX=0;entryY=0.5;entryDx=0;entryDy=0;curved=1;sketch=1;curveFitting=1;jiggle=2;endArrow=none;endFill=0;" edge="1" parent="1" source="sMu1ItdocDUXi0QA_Wb6-1" target="sMu1ItdocDUXi0QA_Wb6-3">
          <mxGeometry relative="1" as="geometry" />
        </mxCell>
        <mxCell id="sMu1ItdocDUXi0QA_Wb6-8" style="edgeStyle=orthogonalEdgeStyle;rounded=0;orthogonalLoop=1;jettySize=auto;html=1;exitX=0.5;exitY=0.5;exitDx=0;exitDy=0;exitPerimeter=0;entryX=0;entryY=0.5;entryDx=0;entryDy=0;sketch=1;curveFitting=1;jiggle=2;flowAnimation=0;endArrow=none;endFill=0;" edge="1" parent="1" source="sMu1ItdocDUXi0QA_Wb6-1" target="sMu1ItdocDUXi0QA_Wb6-4">
          <mxGeometry relative="1" as="geometry" />
        </mxCell>
        <mxCell id="sMu1ItdocDUXi0QA_Wb6-9" style="edgeStyle=orthogonalEdgeStyle;rounded=0;orthogonalLoop=1;jettySize=auto;html=1;exitX=0.5;exitY=0.5;exitDx=0;exitDy=0;exitPerimeter=0;entryX=0;entryY=0.5;entryDx=0;entryDy=0;curved=1;sketch=1;curveFitting=1;jiggle=2;endArrow=none;endFill=0;" edge="1" parent="1" source="sMu1ItdocDUXi0QA_Wb6-1" target="sMu1ItdocDUXi0QA_Wb6-5">
          <mxGeometry relative="1" as="geometry" />
        </mxCell>
        <mxCell id="sMu1ItdocDUXi0QA_Wb6-1" value="ผู้ดูแลระบบ" style="shape=umlActor;verticalLabelPosition=bottom;verticalAlign=top;html=1;outlineConnect=0;sketch=1;curveFitting=1;jiggle=2;fontSize=16;" vertex="1" parent="1">
          <mxGeometry x="90" y="384" width="30" height="60" as="geometry" />
        </mxCell>
        <mxCell id="sMu1ItdocDUXi0QA_Wb6-10" style="edgeStyle=orthogonalEdgeStyle;rounded=0;orthogonalLoop=1;jettySize=auto;html=1;exitX=0.5;exitY=0.5;exitDx=0;exitDy=0;exitPerimeter=0;entryX=1;entryY=0.5;entryDx=0;entryDy=0;endArrow=none;endFill=0;sketch=1;curveFitting=1;jiggle=2;" edge="1" parent="1" source="sMu1ItdocDUXi0QA_Wb6-2" target="sMu1ItdocDUXi0QA_Wb6-6">
          <mxGeometry relative="1" as="geometry" />
        </mxCell>
        <mxCell id="sMu1ItdocDUXi0QA_Wb6-2" value="ผู้เยี่ยมชม" style="shape=umlActor;verticalLabelPosition=bottom;verticalAlign=top;html=1;outlineConnect=0;sketch=1;curveFitting=1;jiggle=2;fontSize=16;" vertex="1" parent="1">
          <mxGeometry x="1050" y="384" width="30" height="60" as="geometry" />
        </mxCell>
        <mxCell id="sMu1ItdocDUXi0QA_Wb6-3" value="จัดการข่าวสาร" style="ellipse;whiteSpace=wrap;html=1;sketch=1;curveFitting=1;jiggle=2;fontSize=16;fillColor=#dae8fc;strokeColor=#6c8ebf;" vertex="1" parent="1">
          <mxGeometry x="320" y="214" width="120" height="80" as="geometry" />
        </mxCell>
        <mxCell id="sMu1ItdocDUXi0QA_Wb6-4" value="จัดการหลักสูตร" style="ellipse;whiteSpace=wrap;html=1;sketch=1;curveFitting=1;jiggle=2;fontSize=16;fillColor=#d5e8d4;strokeColor=#82b366;" vertex="1" parent="1">
          <mxGeometry x="320" y="374" width="120" height="80" as="geometry" />
        </mxCell>
        <mxCell id="sMu1ItdocDUXi0QA_Wb6-5" value="จัดการบุคลากร" style="ellipse;whiteSpace=wrap;html=1;sketch=1;curveFitting=1;jiggle=2;fontSize=16;fillColor=#ffe6cc;strokeColor=#d79b00;" vertex="1" parent="1">
          <mxGeometry x="320" y="534" width="120" height="80" as="geometry" />
        </mxCell>
        <mxCell id="sMu1ItdocDUXi0QA_Wb6-20" style="edgeStyle=orthogonalEdgeStyle;rounded=0;orthogonalLoop=1;jettySize=auto;html=1;exitX=0;exitY=0.5;exitDx=0;exitDy=0;entryX=1;entryY=0.5;entryDx=0;entryDy=0;endArrow=block;endFill=1;sketch=1;curveFitting=1;jiggle=2;dashed=1;" edge="1" parent="1" source="sMu1ItdocDUXi0QA_Wb6-6" target="sMu1ItdocDUXi0QA_Wb6-12">
          <mxGeometry relative="1" as="geometry" />
        </mxCell>
        <mxCell id="sMu1ItdocDUXi0QA_Wb6-27" value="&amp;lt;&amp;lt;include&amp;gt;&amp;gt;" style="edgeLabel;html=1;align=center;verticalAlign=middle;resizable=0;points=[];fontSize=16;" vertex="1" connectable="0" parent="sMu1ItdocDUXi0QA_Wb6-20">
          <mxGeometry x="-0.1367" y="1" relative="1" as="geometry">
            <mxPoint as="offset" />
          </mxGeometry>
        </mxCell>
        <mxCell id="sMu1ItdocDUXi0QA_Wb6-22" style="edgeStyle=orthogonalEdgeStyle;rounded=0;orthogonalLoop=1;jettySize=auto;html=1;exitX=0.5;exitY=1;exitDx=0;exitDy=0;entryX=1;entryY=0.5;entryDx=0;entryDy=0;curved=1;endArrow=block;endFill=1;dashed=1;" edge="1" parent="1" source="sMu1ItdocDUXi0QA_Wb6-6" target="sMu1ItdocDUXi0QA_Wb6-15">
          <mxGeometry relative="1" as="geometry" />
        </mxCell>
        <mxCell id="sMu1ItdocDUXi0QA_Wb6-26" value="&amp;lt;&amp;lt;include&amp;gt;&amp;gt;" style="edgeLabel;html=1;align=center;verticalAlign=middle;resizable=0;points=[];fontSize=16;" vertex="1" connectable="0" parent="sMu1ItdocDUXi0QA_Wb6-22">
          <mxGeometry x="-0.2628" y="-24" relative="1" as="geometry">
            <mxPoint as="offset" />
          </mxGeometry>
        </mxCell>
        <mxCell id="sMu1ItdocDUXi0QA_Wb6-6" value="เข้าเยี่ยมชมเว็บไซต์" style="ellipse;whiteSpace=wrap;html=1;fontSize=16;fillColor=#bac8d3;strokeColor=#23445d;sketch=1;curveFitting=1;jiggle=2;" vertex="1" parent="1">
          <mxGeometry x="830" y="374" width="120" height="80" as="geometry" />
        </mxCell>
        <mxCell id="sMu1ItdocDUXi0QA_Wb6-19" style="edgeStyle=orthogonalEdgeStyle;rounded=0;orthogonalLoop=1;jettySize=auto;html=1;exitX=1;exitY=0.5;exitDx=0;exitDy=0;entryX=0.5;entryY=0;entryDx=0;entryDy=0;curved=1;endArrow=none;endFill=0;startArrow=block;startFill=1;dashed=1;" edge="1" parent="1" source="sMu1ItdocDUXi0QA_Wb6-11" target="sMu1ItdocDUXi0QA_Wb6-6">
          <mxGeometry relative="1" as="geometry" />
        </mxCell>
        <mxCell id="sMu1ItdocDUXi0QA_Wb6-25" value="&amp;lt;&amp;lt;include&amp;gt;&amp;gt;" style="edgeLabel;html=1;align=center;verticalAlign=middle;resizable=0;points=[];fontSize=16;" vertex="1" connectable="0" parent="sMu1ItdocDUXi0QA_Wb6-19">
          <mxGeometry x="-0.1783" y="-14" relative="1" as="geometry">
            <mxPoint as="offset" />
          </mxGeometry>
        </mxCell>
        <mxCell id="sMu1ItdocDUXi0QA_Wb6-23" style="edgeStyle=orthogonalEdgeStyle;rounded=0;orthogonalLoop=1;jettySize=auto;html=1;exitX=0.5;exitY=0;exitDx=0;exitDy=0;entryX=0.5;entryY=1;entryDx=0;entryDy=0;endArrow=block;endFill=1;dashed=1;" edge="1" parent="1" source="sMu1ItdocDUXi0QA_Wb6-11" target="sMu1ItdocDUXi0QA_Wb6-14">
          <mxGeometry relative="1" as="geometry" />
        </mxCell>
        <mxCell id="sMu1ItdocDUXi0QA_Wb6-29" value="&amp;lt;&amp;lt;include&amp;gt;&amp;gt;" style="edgeLabel;html=1;align=center;verticalAlign=middle;resizable=0;points=[];fontSize=16;" vertex="1" connectable="0" parent="sMu1ItdocDUXi0QA_Wb6-23">
          <mxGeometry x="-0.101" relative="1" as="geometry">
            <mxPoint as="offset" />
          </mxGeometry>
        </mxCell>
        <mxCell id="sMu1ItdocDUXi0QA_Wb6-11" value="ดูข่าวสาร" style="ellipse;whiteSpace=wrap;html=1;fillColor=#dae8fc;strokeColor=#6c8ebf;sketch=1;curveFitting=1;jiggle=2;fontSize=16;" vertex="1" parent="1">
          <mxGeometry x="580" y="240" width="120" height="80" as="geometry" />
        </mxCell>
        <mxCell id="sMu1ItdocDUXi0QA_Wb6-24" style="edgeStyle=orthogonalEdgeStyle;rounded=0;orthogonalLoop=1;jettySize=auto;html=1;exitX=0.5;exitY=1;exitDx=0;exitDy=0;entryX=0.5;entryY=0;entryDx=0;entryDy=0;endArrow=block;endFill=1;dashed=1;" edge="1" parent="1" source="sMu1ItdocDUXi0QA_Wb6-12" target="sMu1ItdocDUXi0QA_Wb6-13">
          <mxGeometry relative="1" as="geometry" />
        </mxCell>
        <mxCell id="sMu1ItdocDUXi0QA_Wb6-28" value="&amp;lt;&amp;lt;include&amp;gt;&amp;gt;" style="edgeLabel;html=1;align=center;verticalAlign=middle;resizable=0;points=[];fontSize=16;" vertex="1" connectable="0" parent="sMu1ItdocDUXi0QA_Wb6-24">
          <mxGeometry x="-0.1472" relative="1" as="geometry">
            <mxPoint as="offset" />
          </mxGeometry>
        </mxCell>
        <mxCell id="sMu1ItdocDUXi0QA_Wb6-32" style="edgeStyle=orthogonalEdgeStyle;rounded=0;orthogonalLoop=1;jettySize=auto;html=1;exitX=0;exitY=0.5;exitDx=0;exitDy=0;entryX=1;entryY=0.5;entryDx=0;entryDy=0;dashed=1;endArrow=block;endFill=1;curved=1;" edge="1" parent="1" source="sMu1ItdocDUXi0QA_Wb6-13" target="sMu1ItdocDUXi0QA_Wb6-4">
          <mxGeometry relative="1" as="geometry" />
        </mxCell>
        <mxCell id="sMu1ItdocDUXi0QA_Wb6-33" value="&lt;font style=&quot;font-size: 16px;&quot;&gt;&amp;lt;&amp;lt;include&amp;gt;&amp;gt;&lt;/font&gt;" style="edgeLabel;html=1;align=center;verticalAlign=middle;resizable=0;points=[];" vertex="1" connectable="0" parent="sMu1ItdocDUXi0QA_Wb6-32">
          <mxGeometry x="-0.02" relative="1" as="geometry">
            <mxPoint as="offset" />
          </mxGeometry>
        </mxCell>
        <mxCell id="sMu1ItdocDUXi0QA_Wb6-12" value="ดูรายละเอียด&lt;div&gt;หลักสูตร&lt;/div&gt;" style="ellipse;whiteSpace=wrap;html=1;sketch=1;curveFitting=1;jiggle=2;fillColor=#d5e8d4;strokeColor=#82b366;fontSize=16;" vertex="1" parent="1">
          <mxGeometry x="580" y="374" width="120" height="80" as="geometry" />
        </mxCell>
        <mxCell id="sMu1ItdocDUXi0QA_Wb6-13" value="ค้นหาข้อมูล&lt;div&gt;หลักสูตร&lt;/div&gt;" style="ellipse;whiteSpace=wrap;html=1;sketch=1;curveFitting=1;jiggle=2;fillColor=#d5e8d4;strokeColor=#82b366;fontSize=16;" vertex="1" parent="1">
          <mxGeometry x="580" y="520" width="120" height="80" as="geometry" />
        </mxCell>
        <mxCell id="sMu1ItdocDUXi0QA_Wb6-30" style="edgeStyle=orthogonalEdgeStyle;rounded=0;orthogonalLoop=1;jettySize=auto;html=1;exitX=0;exitY=0.5;exitDx=0;exitDy=0;entryX=0.5;entryY=0;entryDx=0;entryDy=0;curved=1;dashed=1;endArrow=block;endFill=1;" edge="1" parent="1" source="sMu1ItdocDUXi0QA_Wb6-14" target="sMu1ItdocDUXi0QA_Wb6-3">
          <mxGeometry relative="1" as="geometry" />
        </mxCell>
        <mxCell id="sMu1ItdocDUXi0QA_Wb6-31" value="&lt;font style=&quot;font-size: 16px;&quot;&gt;&amp;lt;&amp;lt;include&amp;gt;&amp;gt;&lt;/font&gt;" style="edgeLabel;html=1;align=center;verticalAlign=middle;resizable=0;points=[];" vertex="1" connectable="0" parent="sMu1ItdocDUXi0QA_Wb6-30">
          <mxGeometry x="-0.212" y="8" relative="1" as="geometry">
            <mxPoint as="offset" />
          </mxGeometry>
        </mxCell>
        <mxCell id="sMu1ItdocDUXi0QA_Wb6-14" value="ค้นหาข้อมูล&lt;div&gt;ข่าวสาร&lt;/div&gt;" style="ellipse;whiteSpace=wrap;html=1;fillColor=#dae8fc;strokeColor=#6c8ebf;sketch=1;curveFitting=1;jiggle=2;fontSize=16;" vertex="1" parent="1">
          <mxGeometry x="580" y="100" width="120" height="80" as="geometry" />
        </mxCell>
        <mxCell id="sMu1ItdocDUXi0QA_Wb6-34" style="edgeStyle=orthogonalEdgeStyle;rounded=0;orthogonalLoop=1;jettySize=auto;html=1;exitX=0;exitY=0.5;exitDx=0;exitDy=0;entryX=0.5;entryY=1;entryDx=0;entryDy=0;curved=1;dashed=1;endArrow=block;endFill=1;" edge="1" parent="1" source="sMu1ItdocDUXi0QA_Wb6-15" target="sMu1ItdocDUXi0QA_Wb6-5">
          <mxGeometry relative="1" as="geometry" />
        </mxCell>
        <mxCell id="sMu1ItdocDUXi0QA_Wb6-35" value="&lt;font style=&quot;font-size: 16px;&quot;&gt;&amp;lt;&amp;lt;include&amp;gt;&amp;gt;&lt;/font&gt;" style="edgeLabel;html=1;align=center;verticalAlign=middle;resizable=0;points=[];" vertex="1" connectable="0" parent="sMu1ItdocDUXi0QA_Wb6-34">
          <mxGeometry x="-0.1771" y="-7" relative="1" as="geometry">
            <mxPoint as="offset" />
          </mxGeometry>
        </mxCell>
        <mxCell id="sMu1ItdocDUXi0QA_Wb6-15" value="ดูข้อมูลบุคลากร" style="ellipse;whiteSpace=wrap;html=1;sketch=1;curveFitting=1;jiggle=2;fillColor=#ffe6cc;strokeColor=#d79b00;fontSize=16;" vertex="1" parent="1">
          <mxGeometry x="580" y="650" width="120" height="80" as="geometry" />
        </mxCell>
      </root>
    </mxGraphModel>
  </diagram>
</mxfile>
